<?xml version="1.0" standalone="no"?>
<!DOCTYPE svg PUBLIC "-//W3C//DTD SVG 20010904//EN"
 "http://www.w3.org/TR/2001/REC-SVG-20010904/DTD/svg10.dtd">
<svg version="1.0" xmlns="http://www.w3.org/2000/svg"
 width="512.000000pt" height="512.000000pt" viewBox="0 0 512.000000 512.000000"
 preserveAspectRatio="xMidYMid meet">

<g transform="translate(0.000000,512.000000) scale(0.100000,-0.100000)"
fill="#000000" stroke="none">
<path d="M782 4868 c-8 -8 -12 -59 -12 -165 l0 -153 -148 0 c-200 0 -192 6
-192 -156 l0 -124 -149 0 c-144 0 -151 -1 -165 -22 -14 -20 -16 -197 -16
-1693 0 -1496 2 -1673 16 -1693 14 -21 21 -22 165 -22 l149 0 0 -119 c0 -156
-7 -151 192 -151 l148 0 0 -153 c0 -106 4 -157 12 -165 17 -17 3559 -17 3576
0 9 9 12 102 12 356 l0 344 33 -48 c88 -127 269 -178 410 -116 61 27 143 104
175 167 24 44 27 61 27 145 l0 95 -182 400 c-114 250 -190 405 -202 414 -18
12 -28 11 -67 -4 -25 -9 -47 -16 -48 -14 -2 2 -16 38 -31 78 -20 52 -25 76
-16 79 35 12 146 96 211 162 174 174 263 391 262 645 -1 350 -191 653 -509
814 l-63 31 0 528 c0 397 -3 531 -12 540 -17 17 -3559 17 -3576 0z m3488 -564
c0 -448 -1 -475 -17 -470 -99 30 -274 33 -398 7 -391 -80 -683 -402 -726 -798
-40 -369 158 -735 486 -901 152 -76 287 -106 452 -101 l101 4 28 -79 c15 -44
23 -81 18 -83 -43 -14 -79 -41 -82 -60 -2 -13 28 -134 67 -271 l71 -247 0
-483 0 -482 -1700 0 -1700 0 0 2220 0 2220 1700 0 1700 0 0 -476z m-3510
-1744 l0 -1880 -115 0 -115 0 0 1880 0 1880 115 0 115 0 0 -1880z m-330 -5 l0
-1616 -112 3 -113 3 -3 1600 c-1 880 0 1606 3 1613 3 8 36 12 115 12 l110 0 0
-1615z m3799 1179 c237 -58 446 -235 546 -461 88 -198 86 -458 -5 -659 -71
-157 -214 -307 -364 -379 -140 -68 -227 -89 -376 -89 -175 0 -302 37 -438 128
-158 105 -274 260 -332 441 -28 88 -38 280 -21 380 58 330 338 602 676 655 79
12 231 4 314 -16z m163 -1704 c14 -39 22 -72 17 -75 -4 -3 -26 -12 -48 -20
l-40 -14 -19 52 c-36 96 -36 91 11 109 23 8 44 16 47 17 3 0 17 -31 32 -69z
m357 -501 c189 -418 193 -433 144 -529 -76 -149 -256 -183 -376 -71 -16 14
-35 38 -42 52 -14 25 -227 760 -229 787 -1 13 307 133 329 128 5 -2 84 -166
174 -367z"/>
<path d="M3395 4341 c-50 -22 -109 -86 -125 -136 -8 -23 -11 -65 -8 -106 l5
-68 -242 -161 -242 -161 -38 25 c-69 47 -134 56 -211 30 -25 -8 -50 -12 -54
-7 -4 4 -35 50 -70 102 l-62 93 28 51 c85 157 -28 347 -206 347 -69 0 -124
-25 -171 -77 -47 -52 -62 -99 -57 -180 l4 -65 -118 -79 c-64 -44 -120 -79
-123 -79 -4 0 -21 11 -38 24 -107 79 -261 53 -334 -57 -95 -141 -18 -324 150
-359 147 -31 286 91 275 240 l-4 58 124 83 125 83 47 -26 c58 -31 122 -42 173
-28 l38 11 75 -113 75 -112 -16 -37 c-21 -50 -19 -143 4 -192 84 -180 339
-179 426 2 13 26 19 59 18 108 l-1 70 244 163 245 162 42 -24 c87 -51 192 -43
266 21 132 112 110 312 -42 388 -62 31 -143 33 -202 6z m155 -96 c46 -24 70
-62 70 -112 0 -73 -35 -120 -104 -137 -68 -17 -156 58 -156 133 0 95 106 160
190 116z m-1319 -10 c58 -31 86 -117 58 -177 -12 -26 -67 -65 -104 -74 -34 -8
-106 29 -128 65 -66 112 59 245 174 186z m-646 -411 c19 -9 38 -28 44 -42 6
-15 16 -34 22 -43 17 -23 3 -83 -27 -119 -65 -76 -193 -50 -224 47 -15 43 -5
85 28 124 42 51 97 62 157 33z m1074 -160 c75 -30 107 -138 60 -198 -81 -104
-239 -50 -239 81 0 48 35 97 85 119 39 17 47 17 94 -2z"/>
<path d="M1317 3002 c-21 -23 -22 -46 -1 -66 13 -14 50 -16 253 -16 171 0 240
3 249 12 19 19 15 66 -7 78 -12 6 -110 10 -249 10 -209 0 -230 -2 -245 -18z"/>
<path d="M2002 3008 c-7 -7 -12 -24 -12 -38 0 -14 5 -31 12 -38 17 -17 639
-17 656 0 19 19 15 66 -7 78 -29 15 -633 14 -649 -2z"/>
<path d="M1333 2780 c-34 -14 -41 -59 -13 -82 21 -17 50 -18 455 -18 413 0
433 1 449 19 23 26 17 63 -14 78 -30 15 -840 18 -877 3z"/>
<path d="M2422 2774 c-26 -18 -29 -56 -6 -78 23 -24 568 -24 602 0 31 21 26
64 -8 81 -18 9 -98 13 -295 13 -229 0 -274 -2 -293 -16z"/>
<path d="M1317 2532 c-21 -23 -22 -46 -1 -66 13 -14 52 -16 273 -16 186 0 260
3 269 12 19 19 15 66 -7 78 -12 6 -116 10 -269 10 -228 0 -250 -2 -265 -18z"/>
<path d="M2038 2539 c-21 -12 -24 -59 -6 -77 17 -17 559 -17 576 0 17 17 15
54 -4 72 -13 14 -53 16 -282 16 -163 0 -274 -5 -284 -11z"/>
<path d="M1310 2291 c-15 -28 -12 -46 8 -64 17 -15 64 -17 470 -17 488 0 482
-1 482 54 0 46 2 46 -487 46 -447 0 -463 -1 -473 -19z"/>
<path d="M2442 2298 c-17 -17 -15 -54 4 -72 13 -14 53 -16 283 -16 247 0 269
1 284 18 20 22 22 53 5 70 -17 17 -559 17 -576 0z"/>
<path d="M1315 2060 c-15 -16 -17 -26 -9 -48 l9 -27 305 -3 c301 -2 305 -2
323 19 22 27 21 35 -3 59 -19 19 -33 20 -313 20 -283 0 -295 -1 -312 -20z"/>
<path d="M3370 1927 l-25 -13 -3 -618 c-1 -449 1 -623 9 -632 9 -11 58 -14
230 -14 206 0 219 1 229 19 6 13 10 226 10 623 0 506 -2 607 -14 624 -13 18
-30 19 -213 22 -147 2 -204 -1 -223 -11z m350 -637 l0 -540 -140 0 -140 0 0
540 0 540 140 0 140 0 0 -540z"/>
<path d="M2008 1699 c-17 -9 -18 -44 -18 -512 0 -378 3 -506 12 -515 9 -9 74
-12 230 -12 205 0 218 1 228 19 6 13 10 189 10 503 0 421 -2 486 -16 506 -15
22 -19 22 -222 22 -122 0 -214 -5 -224 -11z m360 -516 l2 -423 -140 0 -140 0
0 425 0 426 138 -3 137 -3 3 -422z"/>
<path d="M1330 1421 c-14 -27 -14 -725 0 -752 10 -18 23 -19 228 -19 156 0
221 3 230 12 17 17 17 749 0 766 -9 9 -74 12 -230 12 -205 0 -218 -1 -228 -19z
m370 -376 l0 -295 -140 0 -140 0 0 295 0 295 140 0 140 0 0 -295z"/>
<path d="M2676 1288 c-14 -19 -16 -66 -16 -311 0 -180 4 -296 10 -308 10 -18
23 -19 228 -19 156 0 221 3 230 12 17 17 17 619 0 636 -9 9 -73 12 -224 12
-209 0 -213 0 -228 -22z m364 -308 l0 -230 -140 0 -140 0 0 223 c0 123 3 227
7 230 3 4 66 7 140 7 l133 0 0 -230z"/>
<path d="M3913 3590 c-120 -24 -249 -98 -343 -196 -277 -292 -225 -766 109
-988 207 -138 450 -150 675 -33 248 128 387 421 332 697 -50 248 -238 448
-482 510 -81 21 -212 25 -291 10z m256 -105 c193 -46 349 -196 407 -390 26
-87 24 -231 -5 -315 -104 -301 -419 -455 -717 -350 -198 69 -344 264 -360 480
-24 312 230 586 546 589 36 0 94 -6 129 -14z"/>
</g>
</svg>
